<?xml version="1.0" encoding="utf-8"?>
<!-- Generator: Adobe Illustrator 24.3.0, SVG Export Plug-In . SVG Version: 6.00 Build 0)  -->
<svg version="1.1" id="Layer_1" xmlns="http://www.w3.org/2000/svg" xmlns:xlink="http://www.w3.org/1999/xlink" x="0px" y="0px"
	 viewBox="0 0 2000 2000" style="enable-background:new 0 0 2000 2000;" xml:space="preserve">
<style type="text/css">
	.st0{fill:#FFFFFF;}
</style>
<g>
	<path class="st0" d="M885.5,935.7c-0.2-1.1-0.8-2-1.5-2.6c-0.8-0.6-1.8-1-2.8-1c-0.3,0-0.7,0-1,0.1l-107.8,25.4
		c-1,0.2-1.9,0.8-2.5,1.6c-0.6,0.8-0.9,1.7-0.9,2.7c0,0.4,0.1,0.8,0.2,1.2l2.6,9.3c38.5-9.2,77-18.4,115.4-27.7L885.5,935.7z"/>
	<path class="st0" d="M875.2,926.5l-11.5-41.8c-3.1-11.4-9.8-20.7-18.6-27.3c-8.7-6.5-19.5-10.2-30.6-10.2c-5,0-10.1,0.7-15.2,2.3
		c-21.7,6.8-35.9,26.8-35.9,48.7c0,3.8,0.4,7.6,1.3,11.5l9.3,40.7L875.2,926.5z"/>
	<path class="st0" d="M907.3,1069.8c6-6.1,10.5-13.1,13.9-21c0.8-2,1.7-4,2.5-6.1c2.7-6.6,5.3-13.1,8.7-19.4
		c1.1-2.1,15.1-24.5,15.8-23.9c-22.1-18.1-37.9-43.4-43.8-72.4c-0.8,0.1-1.5,0.2-2.3,0.2c-2.4,0-4.7-0.3-7.1-0.9
		c-4.2-1.1-7.9-3.2-11.1-5.9c-1.8-1.6-3.4-3.3-4.9-5.3l2.9,10.5c2.3,0.2,4.6,1,6.3,2.5c1.9,1.6,3.4,3.9,3.9,6.5l-3.3,0.6l3.3-0.6
		l8.7,47.3c0.7,3.9,1.1,7.9,1.1,11.7c0,21.2-10.5,40.7-27.5,52.6l5.1,25.9l16.4,5.8c1.1-0.2,2.9-1,4.8-2.4
		C902.7,1074,905,1072.1,907.3,1069.8z"/>
	<path class="st0" d="M888.2,915.2c2.5,2.2,5.4,3.7,8.5,4.5c1.8,0.5,3.5,0.7,5.4,0.7c3.8,0,7.7-1,11.6-3c3.9-2,7.8-4.9,11.4-8.6
		c7.2-7.5,13.3-18.2,16.7-30.9c1.8-6.9,2.7-13.7,2.7-20c0-7.5-1.2-14.4-3.4-20.2c-2.2-5.8-5.3-10.6-9.1-13.8
		c-2.5-2.2-5.4-3.7-8.5-4.5c-1.8-0.5-3.5-0.7-5.4-0.7c-3.8,0-7.7,1-11.6,3c-3.9,2-7.8,4.9-11.4,8.6c-7.2,7.5-13.3,18.2-16.7,30.9
		c-1.8,6.9-2.7,13.7-2.7,20c0,7.5,1.2,14.4,3.4,20.2C881.3,907.2,884.4,912,888.2,915.2z M894.4,868c4.6-17.2,15.5-29.3,24.3-26.9
		c8.8,2.3,12.3,18.2,7.7,35.4c-4.6,17.2-15.5,29.3-24.3,26.9C893.2,901,889.8,885.2,894.4,868z"/>
	<path class="st0" d="M1043.4,923.7c13,0,24.8-5.7,33.4-15.2c8.6-9.4,14-22.5,14-37c0-14.5-5.4-27.6-14-37
		c-8.6-9.4-20.4-15.2-33.4-15.2c-13,0-24.8,5.7-33.4,15.2c-8.6,9.4-14,22.5-14,37c0,14.5,5.4,27.6,14,37
		C1018.6,918,1030.4,923.7,1043.4,923.7z M1044.7,841.7c12.8,0,23.2,14.5,23.2,32.4s-10.4,32.4-23.2,32.4s-23.2-14.5-23.2-32.4
		S1031.8,841.7,1044.7,841.7z"/>
	<path class="st0" d="M951.1,857.9c0,7-0.9,14.3-2.9,21.7l-3.2-0.9l3.2,0.9c-2.7,10.3-7.1,19.4-12.5,26.9
		c-5.4,7.5-11.9,13.3-18.9,16.9c-1.8,0.9-3.7,1.6-5.6,2.2c1.9,9.5,5,18.6,9,27.1c13.7,5.4,27.9,9.4,42.4,12
		c14.9,2.7,30,3.7,45.2,3.2c3.8,0,7.6-0.4,11.3-0.6c3.8-0.4,7.5-0.7,11.3-1.3c7.5-1,15-2.6,22.3-4.4c7.4-1.8,14.7-3.9,21.9-6.3
		c7.2-2.4,14.4-5.2,21.5-8.1c-6.6,4-13.4,7.6-20.5,10.7c-7.1,3.1-14.4,5.8-21.8,8c-7.4,2.2-15,3.9-22.7,5.2
		c-3.8,0.7-7.7,1.2-11.5,1.7c-3.9,0.3-7.7,0.9-11.6,1c-15.5,1-31.2,0.1-46.6-2.4c-12.4-2-24.7-5.3-36.5-9.6
		c20.7,35.5,59.1,59.3,103.2,59.3c33,0,62.8-13.4,84.4-35c21.6-21.6,35-51.4,35-84.4c0-33-13.4-62.8-35-84.4
		c-19.8-19.8-46.6-32.7-76.3-34.7l-4.9,15.7c-0.5,1.8-2.4,2.7-4.2,2.2c-1.8-0.5-2.7-2.4-2.2-4.2l0-0.1l4.8-13.9c-0.5,0-1.1,0-1.6,0
		c-19.4,0-37.6,4.6-53.8,12.8l10,12.6c1.1,1.4,0.9,3.5-0.5,4.7c-1.4,1.1-3.5,0.9-4.7-0.5l-0.1-0.1l-10.3-13.6
		c-11,6.3-20.9,14.3-29.3,23.7c1.9,2.1,3.6,4.5,5.1,7.2C948.8,837,951.1,847,951.1,857.9z M1005,830.1c9.7-10.7,23.3-17.3,38.3-17.3
		c15,0,28.6,6.7,38.3,17.3c9.7,10.7,15.7,25.3,15.7,41.5c0,16.1-6,30.8-15.7,41.5c-9.7,10.7-23.3,17.3-38.3,17.3
		c-15,0-28.6-6.7-38.3-17.3c-9.7-10.7-15.7-25.3-15.7-41.5C989.3,855.4,995.3,840.8,1005,830.1z"/>
	<path class="st0" d="M992.5,1271.3c-1.4,0.7-3.2,1.2-5.1,1.2c-1.8,0-3.7-0.4-5.7-1.2c-11,6.2-25.6,12.4-41.4,12.5
		c-4.6,0-9.3-0.6-14-1.8c1.3,1.8,2.4,3.6,3.5,5.5c1.9,3.7,3.5,7.6,3.9,11.8c-2.6-3.2-5-6.4-7.5-9.4c-2.4-3.1-5-5.9-7.8-8.5
		c-2.8-2.6-5.9-4.8-9-6.7c-0.4-0.3-0.9-0.5-1.4-0.7c-3.3-1.5-7.7-3.2-12.7-4.8c-7.9-2.4-17.3-4.3-26.8-4.3c-8.5,0-17.1,1.5-24.7,5.4
		c-7.6,3.9-14.3,10.2-19.4,20.2c-3.1,6.1-5.5,13.5-7,22.6c0.4,0.1,0.7,0.2,1.1,0.3c2.5,0.7,6.4,1.7,11.5,2.6
		c10.2,1.9,25.4,3.9,45.4,3.9c34.2,0,82.3-5.7,143-26.9c-0.1-1.6-0.2-3.9-0.7-6.4c-0.6-3.4-1.8-7.2-3.8-10.5c-1.3-2.2-3-4.1-5.2-5.7
		c-2.8-2-6.5-3.3-11.6-3.4c-0.1,0.1-0.1,0.2-0.2,0.3C996.1,1268.7,994.7,1270.2,992.5,1271.3z"/>
	<path class="st0" d="M850.3,1049.7c26.7-6,44.9-29.7,44.9-56.2c0-3.5-0.3-7-1-10.5l-3.4-18.7l-113.6,27.5l4.9,17.2
		c7.1,25.3,30.2,42,55.4,42C841.7,1051.1,846,1050.7,850.3,1049.7z"/>
	<path class="st0" d="M1186.4,982.8c-17.5-18.2-34.6-29-41.7-33.1c-18.9,45.9-64,78.3-116.7,78.3c-28.1,0-54-9.2-74.9-24.7
		c-0.8-0.6-13.3,19.4-14.4,21.3c-4.4,8-7.7,16.5-10.8,25c-2.8,8-5,16.3-6,24.8c-0.8,6.5-1.1,13-1.1,19.6c0,24.7,6.2,47.9,17.2,68.3
		l0.1,0c0,0.1,0,0.2,0.1,0.3c6.7,12.3,15,23.5,24.8,33.3c26.1,26.1,62,42.2,101.8,42.2c9.5,0,18.8-1,27.8-2.7
		c-0.2-0.9-0.4-1.9-0.6-3c-0.2-1.3-0.3-2.7-0.3-4c0-6.8,2.5-13.5,6-19.6c3.5-6.2,8.2-11.8,12.7-16.8c7.4-7.9,14.7-13.7,17.3-15.7
		c5.8-18.4,12-45.8,11.5-79.3c-0.2-17.4-2.2-33-4.9-46.5c-2.6-12.9,7.2-24.8,20.3-24.8h0c9.6,0,18.1,6.6,20.2,16
		c2.2,9.5,3.9,19.2,5.2,28.3c1.7,12.1,2.7,23,2.7,31.2c0,4-0.2,7.2-0.7,9.9c-1.9,9.2-6.1,21.5-9.8,34.6c-3.7,13.1-6.9,26.9-6.9,38.4
		c0,1.8,0.1,3.5,0.3,5.2c1,9,5.8,18.9,10.5,29.5c2.2,4.9,4.4,10.1,6.1,15.4c5.8-5.9,16.6-18,27-35.2c14-23,27.3-55.1,27.3-93.9
		c0-8.2-0.6-16.6-1.9-25.4C1228.3,1036,1207,1004.3,1186.4,982.8z"/>
	<path class="st0" d="M1171.9,1232c0,6.5-0.6,12.8-2.2,18.5c-0.7,2.5-1.7,4.9-2.8,7.1c0.9-0.1,1.9-0.1,2.8-0.1
		c2.8,0,5.8,0.3,8.9,1.2c0.2-1.7,0.3-3.4,0.3-5c0-9.9-3.3-19.4-7.3-28.7C1171.8,1227.2,1171.9,1229.6,1171.9,1232z"/>
	<path class="st0" d="M987.4,1265.9c0.9,0,1.5-0.2,2-0.4c0.5-0.3,1-0.6,1.4-1c0.4-0.4,0.7-0.9,0.9-1.2c-0.3-3.7-1.6-18.4-2.4-39.5
		c-4.9-2.9-9.7-6-14.3-9.4c0.6,25.4,7.2,45.7,9.1,50.8C985.5,1265.7,986.6,1265.9,987.4,1265.9z"/>
	<path class="st0" d="M1252.2,1104.8c0-9.2-0.7-18.5-2.1-27.7c-5.8-39.1-24-75.5-52.5-105.2c-15.4-16-30.5-26.8-39.9-32.7
		c3.5-12.2,5.3-24.8,5.3-37.6c0-34.2-12.8-66.8-36-91.8c-20.6-22.2-47.7-36.7-77.2-41.4l42.1-135.7c1.5-5-1.1-10.2-6-11.9l-1.6-0.5
		h-1.5c-4.1,0-7.7,2.6-9,6.5l-48.1,139.9c-18.3,0.3-36.5,4.4-53.2,12l-113-142c-1.8-2.3-4.5-3.6-7.5-3.6c-2.1,0-4.1,0.7-5.8,1.9
		c-4.2,3.2-5,9.2-1.8,13.4l107.3,142c-6.8,4.7-13.1,9.9-18.9,15.7c-1.7-0.7-3.4-1.3-5.2-1.8c-3-0.8-6.2-1.2-9.4-1.2
		c-6.2,0-12.5,1.6-18.6,4.6c-8.2,4.1-15.8,10.9-22.1,19.6c-5.6,7.7-10.1,16.9-13.1,26.8c-3-3.3-6.3-6.4-9.9-9.1
		c-11.5-8.6-25.7-13.3-40-13.3c-6.7,0-13.4,1-19.8,3c-28,8.7-46.8,34.3-46.8,63.6c0,5,0.6,10,1.7,14.9l8.3,36.1
		c-0.1,0.1-0.2,0.2-0.3,0.3c-2.7,3.5-4.2,7.9-4.2,12.3c0,1.8,0.3,3.7,0.8,5.4l13,46c6.9,24.5,25.8,43.3,50,50.4l5.6,20.6
		c-4.6,4.1-7.3,10.1-7.3,16.4c0,1.7,0.2,3.4,0.6,5l0.2,1c0,0.3,0.1,0.6,0.2,1c0.1,0.4,0.2,0.7,0.3,1.1l2.2,9.6c0,0.5,0.1,1,0.2,1.5
		c0.1,0.5,0.3,1,0.4,1.5l2.1,8.9c0,0.6,0.1,1.2,0.3,1.8c0.1,0.6,0.3,1.2,0.6,1.8l0.1,0.4c2.1,9,9.3,15.6,18.2,16.9
		c2.8,8.3,9.1,14.7,17.1,17.7l3.8,14.2c1.7,6.3,6.4,11.2,12.3,13.5c3.7,10.5,7.8,19.2,12.2,25.9c3.7,5.7,7.6,9.9,11.9,13
		c4.9,3.5,10.3,5.3,15.6,5.3c6.1,0,12-2.3,17.1-6.8c5.8-5.1,10.4-12.7,13.7-22.5c1.1-3.4,2-6.9,2.7-10.6c3.9,4.2,8,8.3,12.3,12.1
		c0.3,20.5,4.2,37.9,7.2,48.5c-9.5,4.4-18.4,6.7-26.4,6.7c-4.1,0-8-0.6-11.7-1.7c-2.1-0.7-3.1-1-3.9-1.3c-0.9-0.4-2.1-1.1-4.3-2.3
		c-1.2-0.7-2.6-1.5-4.3-2.3l-1.6-0.9l-0.4-0.2c-0.8-0.4-1.7-0.8-2.6-1.2l-0.8-0.3c-2.1-1-4.3-1.6-6-2.1c-0.4-0.1-0.8-0.2-1.2-0.3
		c-1.2-0.4-2.5-0.8-3.8-1.2c-10.8-3.3-21.4-4.9-31.3-4.9c-7.6,0-14.7,1-21.2,2.9c-11.9,3.5-21.8,10.2-29.4,19.8
		c-8.1,10.2-13.5,23.8-16,40.3l-1.7,4.7c-0.9,2.6-1.4,5.2-1.4,7.9c0,5.1,1.7,10,4.8,14c3.2,4.1,7.8,7.1,12.9,8.2
		c11.8,2.7,31.7,6,59.2,6c45.2,0,94.2-8.7,145.8-25.9c9.4-3.1,15.7-11.9,15.7-21.7c0-2.6-0.4-5.2-1.3-7.6l-1.6-4.6
		c-0.1-5.7-1.1-13.8-4.8-21.6c-2.8-5.9-6.7-10.6-11.5-14c-3.3-2.3-7-4-11.1-5c-0.2-3.1-0.5-6.9-0.7-11.2c18.7,7.5,38.5,11.3,59,11.3
		c9.1,0,18.3-0.8,27.5-2.4c1.2,0.9,2.5,1.6,3.8,2.2c1.6,0.7,3.3,1.1,5.1,1.3v7.4c0,3.4,1,6.7,2.6,9.4c-0.3,0.1-0.5,0.2-0.8,0.3
		l-2.5,0.9l-3.9,1.9c-1,0.5-2,1-3,1.5l-0.4,0.2l-0.4,0.3c-0.6,0.4-1.3,0.8-1.9,1.2c-2.1,1.3-4.4,2.8-6.6,4.9
		c-2.7,2.3-4.9,4.8-6.8,7.1l-0.9,1.1l-3,4.5c-0.8,1.3-1.5,2.6-2,3.7c-0.2,0.4-0.4,0.8-0.6,1.2l-0.2,0.4c-3,6.5-4.8,13.7-5.3,21.4
		c-0.4,6.8,0.1,13.3,1.5,19.6v1.1c0,17.4,12.5,32.1,29.8,34.8c11.2,1.8,21.8,2.7,31.6,2.7h0c9.8,0,18.8-0.9,26.7-2.7
		c9.9-2.2,18.4-5.9,25.2-10.9c11-8.1,18.6-15.9,24-24.7c1.2-1.9,2.1-3.6,2.9-5.1c0.5-0.8,0.9-1.6,1.3-2.3c0.9-1.5,1.3-1.9,1.6-2.1
		c5.8-4.6,9.1-11.6,9.1-19c0-3.5-0.7-7-2.2-10.2l-0.5-1.2c0-0.1,0-0.2,0-0.3c0-3.4-1-6.9-3-9.8c-0.7-1-1.4-1.9-2.2-2.8
		c-1.1-4.1-2-7.5-2.8-10.1c-0.8-2.7-1.3-3.8-1.6-4.6c-0.6-1.3-1.9-4.3-4.1-7.6c-2.5-3.8-5.4-7-8.6-9.6c0.1-1.1,0.1-2.2,0.1-3.3
		c0-3-0.2-6-0.7-9.2c6.6-6.8,17.8-19.6,28.8-37.6C1242.2,1174.5,1252.2,1140.2,1252.2,1104.8z M1184.2,1241.4
		c0.8,3.9,1.4,8,1.4,12.2c0,2.5-0.2,5-0.6,7.6c0.8,0.5,1.7,1,2.5,1.5c3.6,2.6,6.3,5.8,8.1,8.6c1.8,2.8,2.9,5.3,3.4,6.4
		c0.1,0.2,0.4,1,1.2,3.5c0.7,2.3,1.8,6.2,3.3,12.3c1.1,0.8,2.1,1.8,2.8,2.8c1,1.4,1.5,3.1,1.5,4.8c0,0.6-0.1,1.2-0.2,1.8l1.5,3.3
		c0.9,2.1,1.4,4.3,1.4,6.5c0,4.6-2,9.1-5.8,12.1c-1.5,1.2-2.5,2.5-3.6,4.5c-1.1,1.9-2.4,4.4-4.2,7.3c-3.6,5.8-9.4,13.2-21.7,22.2
		c-6.3,4.7-13.9,7.6-21.9,9.4c-8,1.8-16.5,2.5-24.7,2.5c-11,0-21.6-1.2-30.2-2.6c-12.8-2-22.3-13-22.3-26v-2.1
		c-1.5-6.1-1.9-11.9-1.5-18c0.4-6.2,1.8-12.4,4.5-18.2c0.7-1.4,1.3-2.9,2.2-4.2l2.6-4c2-2.4,4-4.9,6.5-6.9c2.2-2.2,5-3.7,7.6-5.5
		c1.4-0.7,2.8-1.4,4.1-2.1l2.1-1l2.2-0.8c5.7-2.4,11.9-3.5,18-3.7c6.1-0.2,12.3,0.5,18.1,2.3c11.7,3.4,22,9.8,30.9,17.6
		c-10.2-5.8-20.8-10.9-31.9-13.4c-11.1-2.5-22.7-2-32.9,2.6l-1.9,0.8l-1.8,1c-1.2,0.7-2.5,1.3-3.7,2l-3.4,2.4
		c-1.2,0.7-2.2,1.7-3.2,2.6c-2.1,1.7-3.8,3.9-5.5,6l-2.2,3.4c-0.7,1.1-1.2,2.4-1.8,3.6c-2.2,5-3.3,10.4-3.7,15.9
		c-0.3,4.9,0.1,10,1,14.7c0.4,0.1,0.9,0.3,1.5,0.5c2.1,0.7,5.3,1.6,9.2,2.5c7.9,1.8,18.9,3.6,31.6,3.6c14,0,29.9-2.2,45.8-8.9
		c4.1-1.7,7.4-5,10.2-8.9c2.8-3.9,5.2-8.2,7.7-11.9c1.7-2.4,3.5-4.6,6.1-6.1c1.5-0.8,2.9-1.8,4-2.8c0.8-0.7,1.4-1.5,1.9-2.2
		l-2.4-5.2l-0.3-0.2l-0.3-1.4c-3-12-4.3-15.5-4.4-16l0,0c-0.5-1.1-1.4-3.1-2.9-5.4c-1.5-2.3-3.6-4.9-6.4-6.8
		c-4.4-3.1-9.5-4.1-14-4.1c-4.4,0-8.1,0.9-9.6,1.3c-2.6,1.9-5.6,3.2-9,3.7l0,0c-0.6,0.1-1.1,0-1.7-0.2c-1.5,1-3.3,1.6-5.2,1.6
		c-2.4,0-4.6-0.9-6.2-2.5c-1.6,1.5-3.8,2.5-6.2,2.5c-2.4,0-4.6-0.9-6.2-2.5c-1.6,1.5-3.8,2.5-6.2,2.5c-5.1,0-9.2-4.1-9.2-9.2v-18
		c-1.8,0.9-4.1,1.9-6.8,1.9c-1.2,0-2.5-0.2-3.8-0.7c-1.3-0.5-2.5-1.4-3.5-2.5c-0.3-0.3-0.5-0.7-0.8-1.1c-9.8,2-20,3.1-30.4,3.1
		c-24.7,0-48-6-68.6-16.6c0.7,16.1,1.6,27.8,2,33.1c5.8,0.3,10.6,1.9,14.3,4.6c4.1,2.8,6.8,6.7,8.6,10.5c3.7,7.8,3.9,15.8,4,18.8
		c0,0.2,0,0.4,0,0.5l2.1,6c0.5,1.5,0.8,3.1,0.8,4.7c0,5.9-3.7,11.3-9.6,13.3c-50.6,16.9-98.7,25.5-143,25.5
		c-26.7,0-45.8-3.1-57.1-5.8c-3.3-0.8-6-2.6-7.9-5c-1.9-2.4-3-5.4-3-8.6c0-1.6,0.3-3.3,0.9-4.9l2.1-5.6c2.4-16.2,7.4-28.3,14.3-37
		c7-8.8,15.8-14.1,25-16.8c6.1-1.8,12.5-2.6,18.7-2.6c10.4,0,20.4,2,28.8,4.6c1.3,0.4,2.5,0.8,3.7,1.2c2,0.6,4.2,1,6.1,2
		c1,0.4,2,0.8,3,1.3l1.9,1.1c1.5,0.7,2.9,1.5,4,2.1c2.6,1.5,4,2.3,5.3,2.8c1.3,0.6,2.5,1,4.8,1.7c4.8,1.5,9.6,2.1,14.4,2.2
		c13.5,0,26.8-5.3,37.1-11c-2.5-7.4-9-28.8-9-55.2c0-0.6,0-1.3,0-1.9c-10.9-9.1-20.5-19.8-28.4-31.6c0.1,1.5,0.1,2.9,0.1,4.4
		c0,9.9-1.5,19.2-4.1,27.1c-2.6,7.9-6.3,14.4-11.1,18.6c-3.2,2.8-7.1,4.6-11.2,4.6c-3.5,0-7.1-1.3-10.4-3.7
		c-3.4-2.4-6.6-5.9-9.7-10.7c-4.5-6.8-8.8-16.2-12.8-28.6c-4.8-0.1-9.2-3.3-10.5-8.2l-5.2-19.2c-7.7-1.1-14.2-6.7-16.3-14.5l0-0.1
		l0,0l-1.2-4.8l-0.4,0.1c-1,0.2-2,0.3-3,0.3c-6.1,0-11.5-4.2-13-10.3l-0.3-1.3c-0.2-0.3-0.3-0.5-0.4-0.8c-0.1-0.3-0.1-0.6-0.1-0.9
		l-2.5-10.6c-0.1-0.2-0.2-0.4-0.3-0.7c-0.1-0.2-0.1-0.5-0.1-0.7l-2.5-10.9c-0.1-0.2-0.1-0.3-0.2-0.5c0-0.2-0.1-0.3-0.1-0.5l-0.4-1.5
		c-0.2-1-0.3-2-0.3-3c0-5.5,3.5-10.5,8.7-12.5l-8.6-31.9c-22.7-4.8-42-21.7-48.7-45.4l-13-46c-0.3-1-0.4-2-0.4-3
		c0-2.5,0.9-4.9,2.3-6.8c0.8-1.1,1.9-2,3.1-2.7l-9.5-41.2c-1-4.3-1.5-8.7-1.5-12.9c0-24.8,16-47.4,40.6-55.1
		c5.7-1.8,11.5-2.6,17.2-2.6c12.6,0,24.8,4.2,34.6,11.6c9.1,6.8,16.2,16.4,20,27.8c0.1-6.6,1-13.5,2.9-20.5
		c2.7-10.3,7.1-19.4,12.5-26.9c5.4-7.5,11.9-13.3,18.9-16.9c4.7-2.4,9.6-3.7,14.6-3.7c2.4,0,4.7,0.3,7.1,0.9
		c3.3,0.9,6.4,2.4,9.1,4.4c8.7-9.7,18.9-18,30.2-24.6L851.4,643c-0.2-0.3-0.2-0.7,0.1-0.9c0.3-0.2,0.7-0.2,0.9,0.1l117.4,147.6
		c17.4-9,37.2-14.2,58.1-14.2c1.3,0,2.6,0.1,3.9,0.1l50.2-145.9c0.1-0.3,0.5-0.5,0.8-0.4c0.3,0.1,0.5,0.5,0.4,0.8L1038.1,776
		c64.9,5.2,116.1,59.5,116.1,125.7c0,14.6-2.5,28.6-7.1,41.6c6.9,3.9,25.2,15.1,44.1,34.8c21.3,22.2,43.4,55.2,50.1,100.3
		c1.4,9.1,2,17.9,2,26.4c0,40.3-13.8,73.6-28.3,97.3C1202.2,1223.2,1189,1236.8,1184.2,1241.4z"/>
	<path class="st0" d="M931.7,1163.4c-8.9-17-14.6-35.9-16.4-55.9c-0.9,1.3-1.9,2.6-2.9,3.8c-3.3,3.8-7.5,6.9-12.9,8.7
		c-3,1-6.3,1.6-10,1.8l2.9,14.5l0,0l0,0c0.3,1.3,0.4,2.7,0.4,4c0,5.6-2.3,10.9-6.5,14.6l5.4,20.1c1.3,4.7-0.7,9.5-4.5,12.1
		c2.5,7.8,5.1,14.3,7.8,19.5c4.2,8.4,8.5,13.7,12.2,16.3c2.5,1.8,4.6,2.4,6.6,2.4c2.3,0,4.5-0.9,6.9-2.9c2.3-2,4.6-5.1,6.5-9.1
		c3.9-7.9,6.4-19.2,6.3-31.5c0-5.9-0.6-12.1-1.8-18.2L931.7,1163.4z"/>
	<path class="st0" d="M885.8,1137.6l-8.9-44.9l-0.4-2.2l-8-2.8c-3.8-1.3-6.1-4.9-6.1-8.7c0-1,0.2-2.1,0.5-3.1
		c1.3-3.8,4.9-6.1,8.7-6.1c0.3,0,0.5,0,0.8,0.1l-4-19.9c-5.1,2.8-10.6,4.9-16.6,6.3c-4.8,1.1-9.6,1.6-14.3,1.6c-2,0-4-0.1-6-0.3
		l7.9,29.2l14.1-3.2c0.7-0.2,1.4-0.2,2.1-0.2c4.2,0,8,2.9,9,7.2c0.2,0.7,0.2,1.4,0.2,2.1c0,1.6-0.4,3.2-1.2,4.6
		c1.8,1.3,3.2,3.2,3.8,5.5c0.2,0.7,0.2,1.4,0.2,2.1c0,1.6-0.4,3.2-1.2,4.6c0.2,0.2,0.5,0.3,0.7,0.5c1.5,1.2,2.6,3,3.1,5
		c0.2,0.7,0.2,1.4,0.2,2.1c0,1.6-0.4,3.1-1.2,4.5c1.9,1.3,3.4,3.2,3.9,5.6c0.2,0.7,0.2,1.4,0.2,2.1c0,4.2-2.9,8-7.2,9l-12,2.7
		l1.1,4.7c1.6,5.7,6.8,9.7,12.5,9.7c0.5,0,1,0,1.5-0.1l0,0l0,0c1.6-0.2,3.3-0.5,5.1-1.1l0,0l0,0c1.9-0.6,3.6-1.3,5.1-2.2
		c4.2-2.3,6.6-6.7,6.6-11.4C886.1,1139.4,886,1138.5,885.8,1137.6L885.8,1137.6z"/>
</g>
</svg>
